<svg viewBox="0 0 1200 360" xmlns="http://www.w3.org/2000/svg" preserveAspectRatio="xMidYMid meet" role="img">
  <title>Robotics learning workspace — győző@robotics-lab</title>
  <desc>Terminal window with neofetch-style robotics workspace output and a robotic arm schematic</desc>

  <rect width="1200" height="360" fill="#02070B"/>
  <rect x="0.5" y="0.5" width="1199" height="359" fill="none" stroke="#1a4d24" stroke-width="1"/>

  <rect x="0" y="0" width="1200" height="36" fill="#0a1410"/>
  <line x1="0" y1="36" x2="1200" y2="36" stroke="#1a4d24" stroke-width="1"/>
  <circle cx="22" cy="18" r="6" fill="#d44a3c"/>
  <circle cx="44" cy="18" r="6" fill="#d4a31e"/>
  <circle cx="66" cy="18" r="6" fill="#2d9c3a"/>
  <text x="600" y="23" font-family="ui-monospace, 'SF Mono', Menlo, Consolas, monospace"
        font-size="12" fill="#5a8a6a" text-anchor="middle" letter-spacing="0.5">győző@robotics-lab — zsh</text>

  <g stroke="#7CFF6B" fill="none" stroke-linecap="round" stroke-linejoin="round">
    <g stroke="#1a4d24" stroke-width="1">
      <line x1="140" y1="298" x2="290" y2="298"/>
      <line x1="150" y1="308" x2="170" y2="308"/>
      <line x1="190" y1="308" x2="210" y2="308"/>
      <line x1="230" y1="308" x2="250" y2="308"/>
      <line x1="270" y1="308" x2="280" y2="308"/>
    </g>
    <rect x="190" y="280" width="40" height="16" stroke-width="1.5" fill="#7CFF6B" fill-opacity="0.06"/>
    <circle cx="210" cy="280" r="7" stroke-width="1.5" fill="#02070B"/>
    <circle cx="210" cy="280" r="2.5" fill="#7CFF6B" stroke="none"/>
    <line x1="210" y1="280" x2="252" y2="208" stroke-width="2.5"/>
    <circle cx="252" cy="208" r="6" stroke-width="1.5" fill="#02070B"/>
    <circle cx="252" cy="208" r="2" fill="#7CFF6B" stroke="none"/>
    <line x1="252" y1="208" x2="322" y2="172" stroke-width="2.5"/>
    <circle cx="322" cy="172" r="4" stroke-width="1.5" fill="#02070B"/>
    <line x1="322" y1="172" x2="338" y2="156" stroke-width="1.5"/>
    <line x1="322" y1="172" x2="338" y2="188" stroke-width="1.5"/>
    <line x1="338" y1="156" x2="343" y2="151" stroke-width="1.5"/>
    <line x1="338" y1="188" x2="343" y2="193" stroke-width="1.5"/>
    <path d="M 130 200 A 110 110 0 0 1 322 140" stroke="#1a4d24" stroke-width="0.5" stroke-dasharray="2 5" fill="none"/>
  </g>

  <g font-family="ui-monospace, 'SF Mono', Menlo, Consolas, monospace" font-size="13.5">
    <text x="460" y="82" fill="#3a6f44">// robotics learning workspace</text>
    <text x="460" y="120" fill="#7CFF6B" font-weight="500">győző<tspan fill="#3a6f44">@</tspan>robotics-lab</text>
    <text x="460" y="138" fill="#1a4d24">──────────────────</text>
    <text x="460" y="166"><tspan fill="#5a8a6a">Location.....</tspan> <tspan fill="#a8c9b0">Budapest, HU</tspan></text>
    <text x="460" y="188"><tspan fill="#5a8a6a">School.......</tspan> <tspan fill="#a8c9b0">ELTE IK</tspan> <tspan fill="#3a6f44">·</tspan> <tspan fill="#a8c9b0">Incoming CS BSc</tspan></text>
    <text x="460" y="210"><tspan fill="#5a8a6a">Stack........</tspan> <tspan fill="#a8c9b0">Python · PyTorch · Gymnasium · Linux</tspan></text>
    <text x="460" y="232"><tspan fill="#5a8a6a">Focus........</tspan> <tspan fill="#a8c9b0">RL · Computer vision · Robot learning</tspan></text>
    <text x="460" y="254"><tspan fill="#5a8a6a">Direction....</tspan> <tspan fill="#a8c9b0">Robotics · Embodied AI · Simulation</tspan></text>
    <text x="460" y="276"><tspan fill="#5a8a6a">Building.....</tspan> <tspan fill="#a8c9b0">Perception-to-action systems</tspan></text>
  </g>

  <text x="60" y="328" font-family="ui-monospace, 'SF Mono', Menlo, Consolas, monospace" font-size="13" letter-spacing="0.5">
    <tspan fill="#3a6f44">❯</tspan><tspan fill="#7CFF6B"> győző@robotics-lab</tspan><tspan fill="#3a6f44">:</tspan><tspan fill="#5a8a6a">~</tspan><tspan fill="#3a6f44">$</tspan> <tspan fill="#7CFF6B">▊<animate attributeName="opacity" values="1;1;0;0;1" keyTimes="0;0.5;0.5;1;1" dur="1.2s" repeatCount="indefinite"/></tspan>
  </text>
</svg>
